<mxfile host="app.diagrams.net" modified="2024-04-28T02:45:11.645Z" agent="Mozilla/5.0 (Windows NT 10.0; Win64; x64) AppleWebKit/537.36 (KHTML, like Gecko) Chrome/124.0.0.0 Safari/537.36 Edg/124.0.0.0" etag="piP89ZmwzMbMo0xDM7O6" version="24.3.0" type="device">
  <diagram name="第 1 页" id="ORPboaElxzWCwbuCKHwi">
    <mxGraphModel dx="2213" dy="793" grid="1" gridSize="10" guides="1" tooltips="1" connect="1" arrows="1" fold="1" page="1" pageScale="1" pageWidth="827" pageHeight="1169" math="0" shadow="0">
      <root>
        <mxCell id="0" />
        <mxCell id="1" parent="0" />
        <mxCell id="rQysn3UC3i-1HF337Ysv-11" style="edgeStyle=orthogonalEdgeStyle;rounded=0;orthogonalLoop=1;jettySize=auto;html=1;exitX=0.5;exitY=1;exitDx=0;exitDy=0;entryX=1;entryY=0.5;entryDx=0;entryDy=0;" edge="1" parent="1" source="rQysn3UC3i-1HF337Ysv-1" target="rQysn3UC3i-1HF337Ysv-22">
          <mxGeometry relative="1" as="geometry">
            <mxPoint x="570" y="420" as="targetPoint" />
          </mxGeometry>
        </mxCell>
        <mxCell id="rQysn3UC3i-1HF337Ysv-1" value="&lt;font style=&quot;font-size: 16px;&quot;&gt;CBS&lt;/font&gt;" style="rounded=1;whiteSpace=wrap;html=1;fillColor=#dae8fc;strokeColor=#6c8ebf;" vertex="1" parent="1">
          <mxGeometry x="510" y="280" width="120" height="60" as="geometry" />
        </mxCell>
        <mxCell id="rQysn3UC3i-1HF337Ysv-3" value="&lt;span style=&quot;font-size: 16px;&quot;&gt;output&lt;/span&gt;" style="rounded=1;whiteSpace=wrap;html=1;fillColor=#dae8fc;strokeColor=#6c8ebf;" vertex="1" parent="1">
          <mxGeometry x="420" y="640" width="120" height="60" as="geometry" />
        </mxCell>
        <mxCell id="rQysn3UC3i-1HF337Ysv-8" style="edgeStyle=orthogonalEdgeStyle;rounded=0;orthogonalLoop=1;jettySize=auto;html=1;exitX=0.5;exitY=1;exitDx=0;exitDy=0;" edge="1" parent="1" source="rQysn3UC3i-1HF337Ysv-4" target="rQysn3UC3i-1HF337Ysv-1">
          <mxGeometry relative="1" as="geometry" />
        </mxCell>
        <mxCell id="rQysn3UC3i-1HF337Ysv-44" style="edgeStyle=orthogonalEdgeStyle;rounded=0;orthogonalLoop=1;jettySize=auto;html=1;exitX=0.5;exitY=1;exitDx=0;exitDy=0;" edge="1" parent="1" source="rQysn3UC3i-1HF337Ysv-4" target="rQysn3UC3i-1HF337Ysv-43">
          <mxGeometry relative="1" as="geometry" />
        </mxCell>
        <mxCell id="rQysn3UC3i-1HF337Ysv-4" value="&lt;font style=&quot;font-size: 16px;&quot;&gt;1,128,160,160&lt;/font&gt;" style="rounded=1;whiteSpace=wrap;html=1;fillColor=#f8cecc;strokeColor=#b85450;" vertex="1" parent="1">
          <mxGeometry x="410" y="170" width="120" height="60" as="geometry" />
        </mxCell>
        <mxCell id="rQysn3UC3i-1HF337Ysv-24" style="edgeStyle=orthogonalEdgeStyle;rounded=0;orthogonalLoop=1;jettySize=auto;html=1;exitX=0.5;exitY=1;exitDx=0;exitDy=0;" edge="1" parent="1" source="rQysn3UC3i-1HF337Ysv-22" target="rQysn3UC3i-1HF337Ysv-3">
          <mxGeometry relative="1" as="geometry" />
        </mxCell>
        <mxCell id="rQysn3UC3i-1HF337Ysv-26" value="&lt;font style=&quot;font-size: 16px;&quot;&gt;[1,128,160,160]&lt;/font&gt;" style="edgeLabel;html=1;align=center;verticalAlign=middle;resizable=0;points=[];" vertex="1" connectable="0" parent="rQysn3UC3i-1HF337Ysv-24">
          <mxGeometry x="-0.35" y="-2" relative="1" as="geometry">
            <mxPoint x="2" y="7" as="offset" />
          </mxGeometry>
        </mxCell>
        <mxCell id="rQysn3UC3i-1HF337Ysv-22" value="&lt;font style=&quot;font-size: 16px;&quot;&gt;cat&lt;/font&gt;" style="rounded=1;whiteSpace=wrap;html=1;fillColor=#fff2cc;strokeColor=#d6b656;" vertex="1" parent="1">
          <mxGeometry x="414" y="525" width="120" height="60" as="geometry" />
        </mxCell>
        <mxCell id="rQysn3UC3i-1HF337Ysv-29" style="edgeStyle=orthogonalEdgeStyle;rounded=0;orthogonalLoop=1;jettySize=auto;html=1;exitX=0;exitY=0.5;exitDx=0;exitDy=0;entryX=0.5;entryY=0;entryDx=0;entryDy=0;" edge="1" parent="1" source="rQysn3UC3i-1HF337Ysv-33" target="rQysn3UC3i-1HF337Ysv-37">
          <mxGeometry relative="1" as="geometry">
            <mxPoint x="-50" y="145" as="targetPoint" />
          </mxGeometry>
        </mxCell>
        <mxCell id="rQysn3UC3i-1HF337Ysv-31" style="edgeStyle=orthogonalEdgeStyle;rounded=0;orthogonalLoop=1;jettySize=auto;html=1;exitX=0.5;exitY=1;exitDx=0;exitDy=0;entryX=0.5;entryY=0;entryDx=0;entryDy=0;" edge="1" parent="1" source="rQysn3UC3i-1HF337Ysv-33" target="rQysn3UC3i-1HF337Ysv-35">
          <mxGeometry relative="1" as="geometry" />
        </mxCell>
        <mxCell id="rQysn3UC3i-1HF337Ysv-33" value="&lt;span style=&quot;font-size: 16px;&quot;&gt;CBS&lt;/span&gt;" style="rounded=1;whiteSpace=wrap;html=1;fillColor=#dae8fc;strokeColor=#6c8ebf;" vertex="1" parent="1">
          <mxGeometry x="50" y="280" width="120" height="60" as="geometry" />
        </mxCell>
        <mxCell id="rQysn3UC3i-1HF337Ysv-35" value="&lt;font style=&quot;font-size: 16px;&quot;&gt;CBS&lt;/font&gt;" style="rounded=1;whiteSpace=wrap;html=1;fillColor=#dae8fc;strokeColor=#6c8ebf;" vertex="1" parent="1">
          <mxGeometry x="50" y="410" width="120" height="60" as="geometry" />
        </mxCell>
        <mxCell id="rQysn3UC3i-1HF337Ysv-36" style="edgeStyle=orthogonalEdgeStyle;rounded=0;orthogonalLoop=1;jettySize=auto;html=1;exitX=0.5;exitY=1;exitDx=0;exitDy=0;entryX=0;entryY=0.5;entryDx=0;entryDy=0;" edge="1" parent="1" source="rQysn3UC3i-1HF337Ysv-37" target="rQysn3UC3i-1HF337Ysv-35">
          <mxGeometry relative="1" as="geometry" />
        </mxCell>
        <mxCell id="rQysn3UC3i-1HF337Ysv-37" value="&lt;font style=&quot;font-size: 16px;&quot;&gt;add&lt;/font&gt;" style="rounded=1;whiteSpace=wrap;html=1;fillColor=#fff2cc;strokeColor=#d6b656;" vertex="1" parent="1">
          <mxGeometry x="-130" y="350" width="120" height="60" as="geometry" />
        </mxCell>
        <mxCell id="rQysn3UC3i-1HF337Ysv-38" value="&lt;font style=&quot;font-size: 16px;&quot;&gt;BottleNeck&lt;/font&gt;" style="rounded=1;whiteSpace=wrap;html=1;" vertex="1" parent="1">
          <mxGeometry x="40" y="170" width="120" height="60" as="geometry" />
        </mxCell>
        <mxCell id="rQysn3UC3i-1HF337Ysv-41" style="edgeStyle=orthogonalEdgeStyle;rounded=0;orthogonalLoop=1;jettySize=auto;html=1;exitX=0.5;exitY=1;exitDx=0;exitDy=0;entryX=0;entryY=0.5;entryDx=0;entryDy=0;" edge="1" parent="1" source="rQysn3UC3i-1HF337Ysv-39" target="rQysn3UC3i-1HF337Ysv-22">
          <mxGeometry relative="1" as="geometry" />
        </mxCell>
        <mxCell id="rQysn3UC3i-1HF337Ysv-39" value="&lt;font style=&quot;font-size: 16px;&quot;&gt;BottleNeck*n&lt;/font&gt;" style="rounded=1;whiteSpace=wrap;html=1;" vertex="1" parent="1">
          <mxGeometry x="330" y="400" width="120" height="60" as="geometry" />
        </mxCell>
        <mxCell id="rQysn3UC3i-1HF337Ysv-45" style="edgeStyle=orthogonalEdgeStyle;rounded=0;orthogonalLoop=1;jettySize=auto;html=1;exitX=0.5;exitY=1;exitDx=0;exitDy=0;entryX=0.5;entryY=0;entryDx=0;entryDy=0;" edge="1" parent="1" source="rQysn3UC3i-1HF337Ysv-43" target="rQysn3UC3i-1HF337Ysv-39">
          <mxGeometry relative="1" as="geometry" />
        </mxCell>
        <mxCell id="rQysn3UC3i-1HF337Ysv-43" value="&lt;font style=&quot;font-size: 16px;&quot;&gt;CBS&lt;/font&gt;" style="rounded=1;whiteSpace=wrap;html=1;fillColor=#dae8fc;strokeColor=#6c8ebf;" vertex="1" parent="1">
          <mxGeometry x="330" y="280" width="120" height="60" as="geometry" />
        </mxCell>
      </root>
    </mxGraphModel>
  </diagram>
</mxfile>
